<svg width="100" height="100" viewBox="0 0 100 100" fill="none" xmlns="http://www.w3.org/2000/svg">
<g clip-path="url(#clip0)">
<path d="M50.0096 100C77.6278 100 100.019 77.6085 100.019 49.9904C100 22.3915 77.6278 0 50.0096 0C22.3915 0 0 22.3915 0 50.0096C0 77.6085 22.3915 100 50.0096 100Z" fill="#D6101F"/>
<path d="M28.4482 27.4445V44.4551C31.0326 41.3692 34.1377 39.807 37.7442 39.807C39.5957 39.807 41.2544 40.1542 42.7587 40.8678C44.263 41.5621 45.3624 42.4686 46.1145 43.5486C46.8667 44.6479 47.3874 45.8437 47.6574 47.1745C47.9275 48.4859 48.0625 50.5496 48.0625 53.3268V71.5139H40.02V55.1397C40.02 51.8803 39.8657 49.836 39.5764 48.9488C39.2679 48.0616 38.7278 47.3673 37.9564 46.8659C37.1849 46.3451 36.2206 46.0751 35.0441 46.0751C33.7134 46.0751 32.5176 46.403 31.4762 47.078C30.4154 47.753 29.6439 48.7367 29.1618 50.0674C28.6603 51.3982 28.4289 53.3654 28.4289 55.9691L28.4096 71.4946H20.3672V27.4445H28.4482ZM60.1165 27.4445V44.4551C62.7008 41.3692 65.8059 39.807 69.4125 39.807C71.264 39.807 72.9226 40.1542 74.427 40.8678C75.912 41.5621 77.0306 42.4686 77.7828 43.5486C78.535 44.6479 79.0557 45.8437 79.3257 47.1745C79.5957 48.4859 79.7307 50.5496 79.7307 53.3268V71.5139H71.6883V55.1397C71.6883 51.8803 71.534 49.836 71.2254 48.9488C70.9456 48.0864 70.3723 47.3494 69.6054 46.8659C68.8339 46.3451 67.8696 46.0751 66.7124 46.0751C65.3816 46.0751 64.1859 46.403 63.1444 47.078C62.103 47.753 61.3315 48.7367 60.8301 50.0674C60.3479 51.3982 60.0972 53.3654 60.0972 55.9691V71.4946H52.0547V27.4445H60.1165Z" fill="white"/>
</g>
<defs>
<clipPath id="clip0">
<rect width="100" height="100" fill="white"/>
</clipPath>
</defs>
</svg>
